<svg width="148.43500976562498px" height="58.4199951171875px" xmlns="http://www.w3.org/2000/svg" viewBox="175.78249511718752 45.79000244140625 148.43500976562498 58.4199951171875" style="background: rgba(0, 0, 0, 0);" preserveAspectRatio="xMidYMid"><defs><filter id="editing-vr"><feFlood flood-color="#f00" flood-opacity="0.7" result="c1"></feFlood><feFlood flood-color="#00f" flood-opacity="0.7" result="c3"></feFlood><feComposite operator="in" in="c1" in2="SourceAlpha" result="text-c1"></feComposite><feComposite operator="in" in="c3" in2="SourceAlpha" result="text-c3"></feComposite><feOffset in="text-c1" dx="1" dy="-1" result="text1"></feOffset><feOffset in="text-c3" dx="-1" dy="1" result="text3"></feOffset><feBlend in="SourceGraphic" in2="text1" mode="multiply" result="text4"></feBlend><feBlend in="text4" in2="text3" mode="multiply"></feBlend></filter></defs><g filter="url(#editing-vr)"><g transform="translate(202.1849993467331, 83.1899995803833)"><path d="M7.06 0.14L7.06 0.14Q5.27 0.14 3.62-0.44L3.62-0.44L3.62-0.44Q1.98-1.01 1.08-1.96L1.08-1.96L1.75-3.27L1.75-3.27Q2.62-2.39 4.07-1.85L4.07-1.85L4.07-1.85Q5.52-1.31 7.06-1.31L7.06-1.31L7.06-1.31Q9.22-1.31 10.30-2.10L10.30-2.10L10.30-2.10Q11.38-2.90 11.38-4.16L11.38-4.16L11.38-4.16Q11.38-5.13 10.80-5.70L10.80-5.70L10.80-5.70Q10.21-6.28 9.36-6.59L9.36-6.59L9.36-6.59Q8.51-6.90 6.99-7.27L6.99-7.27L6.99-7.27Q5.17-7.73 4.09-8.15L4.09-8.15L4.09-8.15Q3.01-8.58 2.24-9.45L2.24-9.45L2.24-9.45Q1.47-10.33 1.47-11.82L1.47-11.82L1.47-11.82Q1.47-13.04 2.12-14.04L2.12-14.04L2.12-14.04Q2.76-15.04 4.09-15.64L4.09-15.64L4.09-15.64Q5.43-16.24 7.41-16.24L7.41-16.24L7.41-16.24Q8.79-16.24 10.11-15.86L10.11-15.86L10.11-15.86Q11.43-15.48 12.40-14.81L12.40-14.81L11.82-13.46L11.82-13.46Q10.81-14.12 9.66-14.46L9.66-14.46L9.66-14.46Q8.51-14.79 7.41-14.79L7.41-14.79L7.41-14.79Q5.29-14.79 4.22-13.97L4.22-13.97L4.22-13.97Q3.15-13.16 3.15-11.87L3.15-11.87L3.15-11.87Q3.15-10.90 3.74-10.32L3.74-10.32L3.74-10.32Q4.32-9.73 5.21-9.42L5.21-9.42L5.21-9.42Q6.09-9.11 7.59-8.74L7.59-8.74L7.59-8.74Q9.36-8.30 10.45-7.88L10.45-7.88L10.45-7.88Q11.55-7.45 12.30-6.59L12.30-6.59L12.30-6.59Q13.06-5.73 13.06-4.25L13.06-4.25L13.06-4.25Q13.06-3.04 12.41-2.04L12.41-2.04L12.41-2.04Q11.75-1.03 10.40-0.45L10.40-0.45L10.40-0.45Q9.04 0.14 7.06 0.14L7.06 0.14ZM22.79-16.10L22.79-16.10Q25.88-16.10 27.62-14.63L27.62-14.63L27.62-14.63Q29.37-13.16 29.37-10.58L29.37-10.58L29.37-10.58Q29.37-8.00 27.62-6.54L27.62-6.54L27.62-6.54Q25.88-5.08 22.79-5.08L22.79-5.08L18.47-5.08L18.47 0L16.77 0L16.77-16.10L22.79-16.10ZM22.75-6.58L22.75-6.58Q25.14-6.58 26.40-7.62L26.40-7.62L26.40-7.62Q27.67-8.67 27.67-10.58L27.67-10.58L27.67-10.58Q27.67-12.54 26.40-13.58L26.40-13.58L26.40-13.58Q25.14-14.63 22.75-14.63L22.75-14.63L18.47-14.63L18.47-6.58L22.75-6.58ZM45.31 0L43.38-4.30L34.41-4.30L32.48 0L30.70 0L38.06-16.10L39.74-16.10L47.10 0L45.31 0ZM35.03-5.68L42.76-5.68L38.89-14.33L35.03-5.68ZM56.76 0.14L56.76 0.14Q54.37 0.14 52.45-0.92L52.45-0.92L52.45-0.92Q50.53-1.98 49.44-3.85L49.44-3.85L49.44-3.85Q48.35-5.73 48.35-8.05L48.35-8.05L48.35-8.05Q48.35-10.37 49.44-12.25L49.44-12.25L49.44-12.25Q50.53-14.12 52.46-15.18L52.46-15.18L52.46-15.18Q54.39-16.24 56.79-16.24L56.79-16.24L56.79-16.24Q58.58-16.24 60.10-15.64L60.10-15.64L60.10-15.64Q61.62-15.04 62.67-13.89L62.67-13.89L61.59-12.81L61.59-12.81Q59.71-14.72 56.83-14.72L56.83-14.72L56.83-14.72Q54.92-14.72 53.36-13.85L53.36-13.85L53.36-13.85Q51.80-12.97 50.91-11.45L50.91-11.45L50.91-11.45Q50.02-9.94 50.02-8.05L50.02-8.05L50.02-8.05Q50.02-6.16 50.91-4.65L50.91-4.65L50.91-4.65Q51.80-3.13 53.36-2.25L53.36-2.25L53.36-2.25Q54.92-1.38 56.83-1.38L56.83-1.38L56.83-1.38Q59.73-1.38 61.59-3.31L61.59-3.31L62.67-2.23L62.67-2.23Q61.62-1.08 60.09-0.47L60.09-0.47L60.09-0.47Q58.56 0.14 56.76 0.14L56.76 0.14ZM68.01-1.47L77.69-1.47L77.69 0L66.31 0L66.31-16.10L77.35-16.10L77.35-14.63L68.01-14.63L68.01-8.90L76.34-8.90L76.34-7.45L68.01-7.45L68.01-1.47ZM94.55 0L92.69 0L89.01-5.17L89.01-5.17Q88.39-5.11 87.72-5.11L87.72-5.11L83.40-5.11L83.40 0L81.70 0L81.70-16.10L87.72-16.10L87.72-16.10Q90.80-16.10 92.55-14.63L92.55-14.63L92.55-14.63Q94.30-13.16 94.30-10.58L94.30-10.58L94.30-10.58Q94.30-8.69 93.35-7.39L93.35-7.39L93.35-7.39Q92.39-6.09 90.62-5.52L90.62-5.52L94.55 0ZM87.68-6.55L87.68-6.55Q90.07-6.55 91.33-7.61L91.33-7.61L91.33-7.61Q92.60-8.67 92.60-10.58L92.60-10.58L92.60-10.58Q92.60-12.54 91.33-13.58L91.33-13.58L91.33-13.58Q90.07-14.63 87.68-14.63L87.68-14.63L83.40-14.63L83.40-6.55L87.68-6.55Z" fill="#444"></path></g></g><style>text {
  font-size: 64px;
  font-family: Arial Black;
  dominant-baseline: central;
  text-anchor: middle;
}</style></svg>